<mxfile host="app.diagrams.net" agent="Mozilla/5.0 (Windows NT 10.0; Win64; x64) AppleWebKit/537.36 (KHTML, like Gecko) Chrome/129.0.0.0 Safari/537.36" version="24.7.17">
  <diagram id="C5RBs43oDa-KdzZeNtuy" name="Page-1">
    <mxGraphModel dx="1827" dy="2868" grid="1" gridSize="10" guides="1" tooltips="1" connect="1" arrows="1" fold="1" page="1" pageScale="1" pageWidth="827" pageHeight="1169" math="0" shadow="0">
      <root>
        <mxCell id="WIyWlLk6GJQsqaUBKTNV-0" />
        <mxCell id="WIyWlLk6GJQsqaUBKTNV-1" parent="WIyWlLk6GJQsqaUBKTNV-0" />
        <mxCell id="t5PSZjo052H7of48spJG-6" value="" style="endArrow=none;dashed=1;html=1;rounded=0;" edge="1" parent="WIyWlLk6GJQsqaUBKTNV-1">
          <mxGeometry width="50" height="50" relative="1" as="geometry">
            <mxPoint x="-760" y="-1840" as="sourcePoint" />
            <mxPoint x="-760" y="-2170" as="targetPoint" />
          </mxGeometry>
        </mxCell>
        <mxCell id="t5PSZjo052H7of48spJG-7" value="" style="endArrow=none;dashed=1;html=1;rounded=0;" edge="1" parent="WIyWlLk6GJQsqaUBKTNV-1">
          <mxGeometry width="50" height="50" relative="1" as="geometry">
            <mxPoint x="-90" y="-1840" as="sourcePoint" />
            <mxPoint x="-90" y="-2170" as="targetPoint" />
          </mxGeometry>
        </mxCell>
        <mxCell id="t5PSZjo052H7of48spJG-8" value="&lt;font style=&quot;vertical-align: inherit; font-size: 17px;&quot;&gt;&lt;font style=&quot;vertical-align: inherit; font-size: 17px;&quot;&gt;Banco&lt;/font&gt;&lt;/font&gt;" style="rounded=1;whiteSpace=wrap;html=1;fontSize=17;fillColor=#e1d5e7;strokeColor=#9673a6;" vertex="1" parent="WIyWlLk6GJQsqaUBKTNV-1">
          <mxGeometry x="-150" y="-2230" width="120" height="60" as="geometry" />
        </mxCell>
        <mxCell id="t5PSZjo052H7of48spJG-15" value="" style="endArrow=none;dashed=1;html=1;rounded=0;" edge="1" parent="WIyWlLk6GJQsqaUBKTNV-1" source="t5PSZjo052H7of48spJG-32">
          <mxGeometry width="50" height="50" relative="1" as="geometry">
            <mxPoint x="-310" y="-1840" as="sourcePoint" />
            <mxPoint x="-310" y="-2170" as="targetPoint" />
          </mxGeometry>
        </mxCell>
        <mxCell id="t5PSZjo052H7of48spJG-16" value="&lt;font style=&quot;vertical-align: inherit; font-size: 17px;&quot;&gt;&lt;font style=&quot;vertical-align: inherit; font-size: 17px;&quot;&gt;&lt;font style=&quot;vertical-align: inherit;&quot;&gt;&lt;font style=&quot;vertical-align: inherit;&quot;&gt;&lt;font style=&quot;vertical-align: inherit;&quot;&gt;&lt;font style=&quot;vertical-align: inherit;&quot;&gt;Autenticação&lt;/font&gt;&lt;/font&gt;&lt;/font&gt;&lt;/font&gt;&lt;/font&gt;&lt;/font&gt;" style="rounded=1;whiteSpace=wrap;html=1;fontSize=17;fillColor=#e1d5e7;strokeColor=#9673a6;" vertex="1" parent="WIyWlLk6GJQsqaUBKTNV-1">
          <mxGeometry x="-370" y="-2230" width="120" height="60" as="geometry" />
        </mxCell>
        <mxCell id="t5PSZjo052H7of48spJG-18" value="" style="endArrow=none;dashed=1;html=1;rounded=0;" edge="1" parent="WIyWlLk6GJQsqaUBKTNV-1" source="t5PSZjo052H7of48spJG-30">
          <mxGeometry width="50" height="50" relative="1" as="geometry">
            <mxPoint x="-560" y="-1830" as="sourcePoint" />
            <mxPoint x="-560" y="-2170" as="targetPoint" />
          </mxGeometry>
        </mxCell>
        <mxCell id="t5PSZjo052H7of48spJG-19" value="&lt;font style=&quot;vertical-align: inherit;&quot;&gt;&lt;font style=&quot;vertical-align: inherit; font-size: 17px;&quot;&gt;Site&lt;/font&gt;&lt;/font&gt;" style="rounded=1;whiteSpace=wrap;html=1;fillColor=#e1d5e7;strokeColor=#9673a6;" vertex="1" parent="WIyWlLk6GJQsqaUBKTNV-1">
          <mxGeometry x="-620" y="-2230" width="120" height="60" as="geometry" />
        </mxCell>
        <mxCell id="t5PSZjo052H7of48spJG-21" value="" style="endArrow=classic;html=1;rounded=0;" edge="1" parent="WIyWlLk6GJQsqaUBKTNV-1">
          <mxGeometry width="50" height="50" relative="1" as="geometry">
            <mxPoint x="-760" y="-2120" as="sourcePoint" />
            <mxPoint x="-530" y="-2120" as="targetPoint" />
          </mxGeometry>
        </mxCell>
        <mxCell id="t5PSZjo052H7of48spJG-22" value="" style="endArrow=none;dashed=1;html=1;rounded=0;" edge="1" parent="WIyWlLk6GJQsqaUBKTNV-1">
          <mxGeometry width="50" height="50" relative="1" as="geometry">
            <mxPoint x="-550" y="-2120" as="sourcePoint" />
            <mxPoint x="-770" y="-2120" as="targetPoint" />
          </mxGeometry>
        </mxCell>
        <mxCell id="t5PSZjo052H7of48spJG-24" value="&lt;font style=&quot;vertical-align: inherit;&quot;&gt;&lt;font style=&quot;vertical-align: inherit; font-size: 15px;&quot;&gt;&lt;font style=&quot;vertical-align: inherit;&quot;&gt;&lt;font style=&quot;vertical-align: inherit;&quot;&gt;&lt;font style=&quot;vertical-align: inherit;&quot;&gt;&lt;font style=&quot;vertical-align: inherit;&quot;&gt;&lt;font style=&quot;vertical-align: inherit;&quot;&gt;&lt;font style=&quot;vertical-align: inherit;&quot;&gt;lnserir dados (todos)&lt;/font&gt;&lt;/font&gt;&lt;/font&gt;&lt;/font&gt;&lt;/font&gt;&lt;/font&gt;&lt;/font&gt;&lt;/font&gt;" style="edgeLabel;html=1;align=center;verticalAlign=middle;resizable=0;points=[];" vertex="1" connectable="0" parent="t5PSZjo052H7of48spJG-22">
          <mxGeometry x="0.1163" y="-4" relative="1" as="geometry">
            <mxPoint as="offset" />
          </mxGeometry>
        </mxCell>
        <mxCell id="t5PSZjo052H7of48spJG-25" value="" style="endArrow=classic;html=1;rounded=0;" edge="1" parent="WIyWlLk6GJQsqaUBKTNV-1">
          <mxGeometry width="50" height="50" relative="1" as="geometry">
            <mxPoint x="-560" y="-2020" as="sourcePoint" />
            <mxPoint x="-770" y="-2020" as="targetPoint" />
          </mxGeometry>
        </mxCell>
        <mxCell id="t5PSZjo052H7of48spJG-27" value="&lt;font style=&quot;vertical-align: inherit;&quot;&gt;&lt;font style=&quot;vertical-align: inherit;&quot;&gt;Mensagem de erro&lt;/font&gt;&lt;/font&gt;" style="text;html=1;align=center;verticalAlign=middle;resizable=0;points=[];autosize=1;strokeColor=none;fillColor=none;" vertex="1" parent="WIyWlLk6GJQsqaUBKTNV-1">
          <mxGeometry x="-720" y="-2040" width="120" height="30" as="geometry" />
        </mxCell>
        <mxCell id="t5PSZjo052H7of48spJG-31" value="" style="endArrow=none;dashed=1;html=1;rounded=0;" edge="1" parent="WIyWlLk6GJQsqaUBKTNV-1" target="t5PSZjo052H7of48spJG-30">
          <mxGeometry width="50" height="50" relative="1" as="geometry">
            <mxPoint x="-560" y="-1830" as="sourcePoint" />
            <mxPoint x="-560" y="-2170" as="targetPoint" />
          </mxGeometry>
        </mxCell>
        <mxCell id="t5PSZjo052H7of48spJG-30" value="" style="rounded=0;whiteSpace=wrap;html=1;" vertex="1" parent="WIyWlLk6GJQsqaUBKTNV-1">
          <mxGeometry x="-570" y="-2140" width="20" height="150" as="geometry" />
        </mxCell>
        <mxCell id="t5PSZjo052H7of48spJG-33" value="" style="endArrow=none;dashed=1;html=1;rounded=0;" edge="1" parent="WIyWlLk6GJQsqaUBKTNV-1" target="t5PSZjo052H7of48spJG-32">
          <mxGeometry width="50" height="50" relative="1" as="geometry">
            <mxPoint x="-310" y="-1840" as="sourcePoint" />
            <mxPoint x="-310" y="-2170" as="targetPoint" />
          </mxGeometry>
        </mxCell>
        <mxCell id="t5PSZjo052H7of48spJG-32" value="" style="rounded=0;whiteSpace=wrap;html=1;" vertex="1" parent="WIyWlLk6GJQsqaUBKTNV-1">
          <mxGeometry x="-320" y="-2115" width="20" height="180" as="geometry" />
        </mxCell>
        <mxCell id="t5PSZjo052H7of48spJG-34" value="" style="endArrow=classic;html=1;rounded=0;exitX=1.145;exitY=0.598;exitDx=0;exitDy=0;exitPerimeter=0;" edge="1" parent="WIyWlLk6GJQsqaUBKTNV-1" source="t5PSZjo052H7of48spJG-32">
          <mxGeometry width="50" height="50" relative="1" as="geometry">
            <mxPoint x="-220" y="-2000" as="sourcePoint" />
            <mxPoint x="-90" y="-2007" as="targetPoint" />
          </mxGeometry>
        </mxCell>
        <mxCell id="t5PSZjo052H7of48spJG-35" value="&lt;font style=&quot;vertical-align: inherit;&quot;&gt;&lt;font style=&quot;vertical-align: inherit; font-size: 15px;&quot;&gt;Inserir todos os dados&amp;nbsp;&lt;/font&gt;&lt;/font&gt;" style="edgeLabel;html=1;align=center;verticalAlign=middle;resizable=0;points=[];" vertex="1" connectable="0" parent="t5PSZjo052H7of48spJG-34">
          <mxGeometry x="0.0577" y="3" relative="1" as="geometry">
            <mxPoint as="offset" />
          </mxGeometry>
        </mxCell>
        <mxCell id="t5PSZjo052H7of48spJG-36" value="" style="endArrow=none;dashed=1;html=1;rounded=0;" edge="1" parent="WIyWlLk6GJQsqaUBKTNV-1">
          <mxGeometry width="50" height="50" relative="1" as="geometry">
            <mxPoint x="-300" y="-1950" as="sourcePoint" />
            <mxPoint x="-90" y="-1950" as="targetPoint" />
          </mxGeometry>
        </mxCell>
        <mxCell id="t5PSZjo052H7of48spJG-37" value="" style="endArrow=classic;html=1;rounded=0;" edge="1" parent="WIyWlLk6GJQsqaUBKTNV-1">
          <mxGeometry width="50" height="50" relative="1" as="geometry">
            <mxPoint x="-100" y="-1950" as="sourcePoint" />
            <mxPoint x="-80" y="-1950" as="targetPoint" />
          </mxGeometry>
        </mxCell>
        <mxCell id="t5PSZjo052H7of48spJG-38" value="Msg Oh" style="text;html=1;align=center;verticalAlign=middle;resizable=0;points=[];autosize=1;strokeColor=none;fillColor=none;" vertex="1" parent="WIyWlLk6GJQsqaUBKTNV-1">
          <mxGeometry x="-240" y="-1970" width="70" height="30" as="geometry" />
        </mxCell>
        <mxCell id="t5PSZjo052H7of48spJG-39" value="" style="endArrow=none;dashed=1;html=1;rounded=0;" edge="1" parent="WIyWlLk6GJQsqaUBKTNV-1">
          <mxGeometry width="50" height="50" relative="1" as="geometry">
            <mxPoint x="-540" y="-1950" as="sourcePoint" />
            <mxPoint x="-320" y="-1950" as="targetPoint" />
          </mxGeometry>
        </mxCell>
        <mxCell id="t5PSZjo052H7of48spJG-40" value="" style="endArrow=classic;html=1;rounded=0;" edge="1" parent="WIyWlLk6GJQsqaUBKTNV-1">
          <mxGeometry width="50" height="50" relative="1" as="geometry">
            <mxPoint x="-540" y="-1950" as="sourcePoint" />
            <mxPoint x="-550" y="-1950" as="targetPoint" />
          </mxGeometry>
        </mxCell>
        <mxCell id="t5PSZjo052H7of48spJG-41" value="Retorna Id usuário" style="text;html=1;align=center;verticalAlign=middle;resizable=0;points=[];autosize=1;strokeColor=none;fillColor=none;" vertex="1" parent="WIyWlLk6GJQsqaUBKTNV-1">
          <mxGeometry x="-500" y="-1970" width="120" height="30" as="geometry" />
        </mxCell>
        <mxCell id="t5PSZjo052H7of48spJG-43" value="" style="endArrow=none;dashed=1;html=1;rounded=0;" edge="1" parent="WIyWlLk6GJQsqaUBKTNV-1">
          <mxGeometry width="50" height="50" relative="1" as="geometry">
            <mxPoint x="-550" y="-2000" as="sourcePoint" />
            <mxPoint x="-330" y="-2000" as="targetPoint" />
          </mxGeometry>
        </mxCell>
        <mxCell id="t5PSZjo052H7of48spJG-44" value="" style="endArrow=classic;html=1;rounded=0;" edge="1" parent="WIyWlLk6GJQsqaUBKTNV-1">
          <mxGeometry width="50" height="50" relative="1" as="geometry">
            <mxPoint x="-340" y="-2000" as="sourcePoint" />
            <mxPoint x="-320" y="-2000" as="targetPoint" />
          </mxGeometry>
        </mxCell>
        <mxCell id="t5PSZjo052H7of48spJG-45" value="" style="endArrow=classic;html=1;rounded=0;entryX=1;entryY=0;entryDx=0;entryDy=0;" edge="1" parent="WIyWlLk6GJQsqaUBKTNV-1" target="t5PSZjo052H7of48spJG-30">
          <mxGeometry width="50" height="50" relative="1" as="geometry">
            <mxPoint x="-560" y="-1890" as="sourcePoint" />
            <mxPoint x="-530" y="-2130" as="targetPoint" />
            <Array as="points">
              <mxPoint x="-580" y="-1890" />
              <mxPoint x="-580" y="-2000" />
              <mxPoint x="-580" y="-2150" />
              <mxPoint x="-530" y="-2150" />
              <mxPoint x="-530" y="-2140" />
              <mxPoint x="-530" y="-2130" />
            </Array>
          </mxGeometry>
        </mxCell>
        <mxCell id="t5PSZjo052H7of48spJG-46" value="" style="endArrow=classic;html=1;rounded=0;" edge="1" parent="WIyWlLk6GJQsqaUBKTNV-1">
          <mxGeometry width="50" height="50" relative="1" as="geometry">
            <mxPoint x="-770" y="-1920" as="sourcePoint" />
            <mxPoint x="-780" y="-1920" as="targetPoint" />
          </mxGeometry>
        </mxCell>
        <mxCell id="t5PSZjo052H7of48spJG-47" value="Retorna Id usuário" style="text;html=1;align=center;verticalAlign=middle;resizable=0;points=[];autosize=1;strokeColor=none;fillColor=none;" vertex="1" parent="WIyWlLk6GJQsqaUBKTNV-1">
          <mxGeometry x="-730" y="-1940" width="120" height="30" as="geometry" />
        </mxCell>
        <mxCell id="t5PSZjo052H7of48spJG-48" value="" style="endArrow=none;dashed=1;html=1;rounded=0;" edge="1" parent="WIyWlLk6GJQsqaUBKTNV-1">
          <mxGeometry width="50" height="50" relative="1" as="geometry">
            <mxPoint x="-770" y="-1920" as="sourcePoint" />
            <mxPoint x="-560" y="-1920" as="targetPoint" />
            <Array as="points" />
          </mxGeometry>
        </mxCell>
        <mxCell id="t5PSZjo052H7of48spJG-49" value="v=Validação de dados" style="text;html=1;align=center;verticalAlign=middle;resizable=0;points=[];autosize=1;strokeColor=none;fillColor=none;" vertex="1" parent="WIyWlLk6GJQsqaUBKTNV-1">
          <mxGeometry x="-530" y="-2160" width="140" height="30" as="geometry" />
        </mxCell>
        <mxCell id="t5PSZjo052H7of48spJG-51" value="" style="endArrow=classic;html=1;rounded=0;" edge="1" parent="WIyWlLk6GJQsqaUBKTNV-1">
          <mxGeometry width="50" height="50" relative="1" as="geometry">
            <mxPoint x="-570" y="-2020" as="sourcePoint" />
            <mxPoint x="-550" y="-1990" as="targetPoint" />
            <Array as="points">
              <mxPoint x="-520" y="-2020" />
              <mxPoint x="-520" y="-1990" />
            </Array>
          </mxGeometry>
        </mxCell>
        <mxCell id="t5PSZjo052H7of48spJG-52" value="Criar usuário (todos os dados)" style="text;html=1;align=center;verticalAlign=middle;resizable=0;points=[];autosize=1;strokeColor=none;fillColor=none;" vertex="1" parent="WIyWlLk6GJQsqaUBKTNV-1">
          <mxGeometry x="-520" y="-2020" width="180" height="30" as="geometry" />
        </mxCell>
        <mxCell id="t5PSZjo052H7of48spJG-53" value="email" style="text;html=1;align=center;verticalAlign=middle;resizable=0;points=[];autosize=1;strokeColor=none;fillColor=none;" vertex="1" parent="WIyWlLk6GJQsqaUBKTNV-1">
          <mxGeometry x="-520" y="-2040" width="50" height="30" as="geometry" />
        </mxCell>
        <mxCell id="t5PSZjo052H7of48spJG-54" value="" style="endArrow=classic;html=1;rounded=0;exitX=0;exitY=0.417;exitDx=0;exitDy=0;exitPerimeter=0;" edge="1" parent="WIyWlLk6GJQsqaUBKTNV-1" source="t5PSZjo052H7of48spJG-32">
          <mxGeometry width="50" height="50" relative="1" as="geometry">
            <mxPoint x="-470" y="-2050" as="sourcePoint" />
            <mxPoint x="-540" y="-2040" as="targetPoint" />
          </mxGeometry>
        </mxCell>
        <mxCell id="t5PSZjo052H7of48spJG-56" value="email já existe ( ) bool" style="text;html=1;align=center;verticalAlign=middle;resizable=0;points=[];autosize=1;strokeColor=none;fillColor=none;" vertex="1" parent="WIyWlLk6GJQsqaUBKTNV-1">
          <mxGeometry x="-500" y="-2060" width="140" height="30" as="geometry" />
        </mxCell>
        <mxCell id="t5PSZjo052H7of48spJG-58" value="Actor" style="shape=umlActor;verticalLabelPosition=bottom;verticalAlign=top;html=1;outlineConnect=0;fontSize=3;" vertex="1" parent="WIyWlLk6GJQsqaUBKTNV-1">
          <mxGeometry x="-770" y="-2230" width="30" height="60" as="geometry" />
        </mxCell>
        <mxCell id="t5PSZjo052H7of48spJG-59" value="" style="endArrow=classic;html=1;rounded=0;exitX=1;exitY=0.25;exitDx=0;exitDy=0;" edge="1" parent="WIyWlLk6GJQsqaUBKTNV-1" source="t5PSZjo052H7of48spJG-30">
          <mxGeometry width="50" height="50" relative="1" as="geometry">
            <mxPoint x="-490" y="-2080" as="sourcePoint" />
            <mxPoint x="-540" y="-2080" as="targetPoint" />
            <Array as="points">
              <mxPoint x="-520" y="-2100" />
              <mxPoint x="-520" y="-2080" />
            </Array>
          </mxGeometry>
        </mxCell>
        <mxCell id="t5PSZjo052H7of48spJG-60" value="Preench. de dados incorreto" style="text;html=1;align=center;verticalAlign=middle;resizable=0;points=[];autosize=1;strokeColor=none;fillColor=none;" vertex="1" parent="WIyWlLk6GJQsqaUBKTNV-1">
          <mxGeometry x="-530" y="-2112" width="170" height="30" as="geometry" />
        </mxCell>
        <mxCell id="t5PSZjo052H7of48spJG-62" value="" style="endArrow=classic;html=1;rounded=0;" edge="1" parent="WIyWlLk6GJQsqaUBKTNV-1">
          <mxGeometry width="50" height="50" relative="1" as="geometry">
            <mxPoint x="-550" y="-2060" as="sourcePoint" />
            <mxPoint x="-320" y="-2060" as="targetPoint" />
          </mxGeometry>
        </mxCell>
        <mxCell id="t5PSZjo052H7of48spJG-63" value="Verificar email válido" style="text;html=1;align=center;verticalAlign=middle;resizable=0;points=[];autosize=1;strokeColor=none;fillColor=none;" vertex="1" parent="WIyWlLk6GJQsqaUBKTNV-1">
          <mxGeometry x="-505" y="-2082" width="130" height="30" as="geometry" />
        </mxCell>
        <mxCell id="t5PSZjo052H7of48spJG-64" value="" style="endArrow=none;dashed=1;html=1;dashPattern=1 3;strokeWidth=2;rounded=0;" edge="1" parent="WIyWlLk6GJQsqaUBKTNV-1">
          <mxGeometry width="50" height="50" relative="1" as="geometry">
            <mxPoint x="-760" y="-1955" as="sourcePoint" />
            <mxPoint x="-560" y="-1955.48" as="targetPoint" />
          </mxGeometry>
        </mxCell>
        <mxCell id="t5PSZjo052H7of48spJG-65" value="Email já existe?" style="text;html=1;align=center;verticalAlign=middle;resizable=0;points=[];autosize=1;strokeColor=none;fillColor=none;" vertex="1" parent="WIyWlLk6GJQsqaUBKTNV-1">
          <mxGeometry x="-725" y="-1982" width="110" height="30" as="geometry" />
        </mxCell>
        <mxCell id="t5PSZjo052H7of48spJG-66" value="" style="endArrow=classic;html=1;rounded=0;" edge="1" parent="WIyWlLk6GJQsqaUBKTNV-1">
          <mxGeometry width="50" height="50" relative="1" as="geometry">
            <mxPoint x="-760" y="-1955.48" as="sourcePoint" />
            <mxPoint x="-770" y="-1955.48" as="targetPoint" />
          </mxGeometry>
        </mxCell>
      </root>
    </mxGraphModel>
  </diagram>
</mxfile>
